name C:\Users\u0101727\Documents\MyRepositories\predictivesimulations\OpenSimModel\subject1\EMG\EMG_gait_64.mot
datacolumns 25
datarows 9
range 1.10300000 1.11100000
endheader
time	HamL_r	TA_r	PerL_r	GL_r	HamM_r	Sol_r	VL_r	VM_r	PerB_l	TA_l	PerL_l	GL_l	GM_l	Sol_l	VL_l	VM_l	AddL_l	RF_l	TFL_l	GluMed_l	HamL_l	HamM_l	GluMed_r	RF_r	
          1.10300000	          0.00321596	          0.00376391	          0.00342253	          0.00426276	          0.00396014	          0.05217532	          0.00630537	          0.00331011	          0.00982787	          0.04584268	          0.01921767	          0.01038226	          0.01068499	          0.00866923	          0.03252598	          0.02965747	          0.01642582	          0.00922270	          0.00790850	          0.00761633	          0.03745438	          0.07401394	          0.00524806	          0.00598732	
          1.10400000	          0.00321304	          0.00378316	          0.00341833	          0.00428278	          0.00394985	          0.05172050	          0.00626464	          0.00330898	          0.01006049	          0.04679972	          0.01942845	          0.01046236	          0.01072274	          0.00886616	          0.03272695	          0.02962378	          0.01619342	          0.00912819	          0.00775036	          0.00773348	          0.03718758	          0.07360110	          0.00520059	          0.00597353	
          1.10500000	          0.00321173	          0.00380511	          0.00341468	          0.00430197	          0.00394039	          0.05126645	          0.00622450	          0.00330975	          0.01030547	          0.04781024	          0.01965234	          0.01054751	          0.01077275	          0.00907554	          0.03292317	          0.02958765	          0.01595971	          0.00904146	          0.00758947	          0.00785903	          0.03689210	          0.07311054	          0.00515694	          0.00596230	
          1.10600000	          0.00321206	          0.00382965	          0.00341162	          0.00432036	          0.00393192	          0.05081171	          0.00618510	          0.00331241	          0.01056260	          0.04887330	          0.01988899	          0.01063776	          0.01083495	          0.00929721	          0.03311495	          0.02954892	          0.01572651	          0.00896282	          0.00742649	          0.00799317	          0.03656872	          0.07254510	          0.00511705	          0.00595359	
          1.10700000	          0.00321408	          0.00385659	          0.00340919	          0.00433803	          0.00392452	          0.05035479	          0.00614658	          0.00331688	          0.01083158	          0.04998773	          0.02013819	          0.01073319	          0.01090922	          0.00953092	          0.03330293	          0.02950748	          0.01549542	          0.00889254	          0.00726213	          0.00813602	          0.03621850	          0.07190967	          0.00508085	          0.00594737	
          1.10800000	          0.00321787	          0.00388574	          0.00340743	          0.00435503	          0.00391830	          0.04989441	          0.00610909	          0.00332308	          0.01111206	          0.05115211	          0.02039998	          0.01083393	          0.01099534	          0.00977637	          0.03348796	          0.02946316	          0.01526787	          0.00883081	          0.00709708	          0.00828765	          0.03584273	          0.07121039	          0.00504827	          0.00594361	
          1.10900000	          0.00322352	          0.00391686	          0.00340635	          0.00437144	          0.00391330	          0.04942961	          0.00607273	          0.00333092	          0.01140360	          0.05236471	          0.02067445	          0.01094012	          0.01109308	          0.01003313	          0.03367095	          0.02941585	          0.01504518	          0.00877781	          0.00693205	          0.00844805	          0.03544317	          0.07045375	          0.00501924	          0.00594227	
          1.11000000	          0.00323111	          0.00394971	          0.00340599	          0.00438735	          0.00390958	          0.04896001	          0.00603753	          0.00334030	          0.01170566	          0.05362363	          0.02096161	          0.01105189	          0.01120213	          0.01030066	          0.03385283	          0.02936557	          0.01482853	          0.00873366	          0.00676778	          0.00861719	          0.03502209	          0.06964597	          0.00499371	          0.00594324	
          1.11100000	          0.00324070	          0.00398404	          0.00340635	          0.00440289	          0.00390714	          0.04848584	          0.00600347	          0.00335109	          0.01201758	          0.05492680	          0.02126119	          0.01116934	          0.01132214	          0.01057831	          0.03403437	          0.02931250	          0.01461904	          0.00869848	          0.00660517	          0.00879503	          0.03458197	          0.06879299	          0.00497159	          0.00594641	
